<svg width="45" height="20" viewBox="0 0 45 20" fill="none" xmlns="http://www.w3.org/2000/svg">
<path d="M8.288 14.636C7.50933 15.3507 6.50133 15.708 5.264 15.708C4.02667 15.708 3.01333 15.3507 2.224 14.636C1.44533 13.9107 1.056 12.9453 1.056 11.74V4.3H2.544V11.676C2.544 12.4653 2.77867 13.0947 3.248 13.564C3.71733 14.0227 4.38933 14.252 5.264 14.252C6.13867 14.252 6.81067 14.0227 7.28 13.564C7.74933 13.0947 7.984 12.4653 7.984 11.676V4.3H9.456V11.74C9.456 12.9453 9.06667 13.9107 8.288 14.636ZM12.9153 14.092H18.4673V15.5H11.1553V14.204L16.5633 5.708H11.2993V4.3H18.3393V5.58L12.9153 14.092Z" fill="#303030"/>
<g clip-path="url(#clip0_215_956)">
<path d="M30 7.5L35 12.5L40 7.5" stroke="#2C3E50" stroke-width="1.5" stroke-linecap="round" stroke-linejoin="round"/>
</g>
<defs>
<clipPath id="clip0_215_956">
<rect width="20" height="20" fill="white" transform="translate(25)"/>
</clipPath>
</defs>
</svg>
