<svg width="32" height="32" viewBox="0 0 32 32" fill="none" xmlns="http://www.w3.org/2000/svg">
<g clip-path="url(#clip0_219_1354)">
<path d="M19.75 1.875H18.6523C18.265 0.783687 17.2222 0 16 0C14.7778 0 13.735 0.783687 13.3477 1.875H12.25C10.6991 1.875 9.4375 3.13663 9.4375 4.6875C9.4375 5.20569 9.85681 5.625 10.375 5.625H21.625C22.1432 5.625 22.5625 5.20569 22.5625 4.6875C22.5625 3.13663 21.3009 1.875 19.75 1.875Z" fill="#5762F7"/>
<path d="M25.375 3.75H24.3426C24.4044 4.05306 24.4375 4.3665 24.4375 4.6875C24.4375 6.23837 23.1759 7.5 21.625 7.5H10.375C8.82413 7.5 7.5625 6.23837 7.5625 4.6875C7.5625 4.3665 7.59556 4.05306 7.65737 3.75H6.625C5.07413 3.75 3.8125 5.01163 3.8125 6.5625V29.1875C3.8125 30.7384 5.07413 32 6.625 32H25.375C26.9259 32 28.1875 30.7384 28.1875 29.1875V6.5625C28.1875 5.01163 26.9259 3.75 25.375 3.75ZM13.1875 26.25H9.4375C8.91931 26.25 8.5 25.8307 8.5 25.3125C8.5 24.7943 8.91931 24.375 9.4375 24.375H13.1875C13.7057 24.375 14.125 24.7943 14.125 25.3125C14.125 25.8307 13.7057 26.25 13.1875 26.25ZM13.1875 19.6875H9.4375C8.91931 19.6875 8.5 19.2682 8.5 18.75C8.5 18.2318 8.91931 17.8125 9.4375 17.8125H13.1875C13.7057 17.8125 14.125 18.2318 14.125 18.75C14.125 19.2682 13.7057 19.6875 13.1875 19.6875ZM13.1875 13.125H9.4375C8.91931 13.125 8.5 12.7057 8.5 12.1875C8.5 11.6693 8.91931 11.25 9.4375 11.25H13.1875C13.7057 11.25 14.125 11.6693 14.125 12.1875C14.125 12.7057 13.7057 13.125 13.1875 13.125ZM22.2878 26.5247C22.654 26.8909 22.654 27.4842 22.2878 27.8504C22.1047 28.0335 21.8648 28.1251 21.625 28.1251C21.3852 28.1251 21.1452 28.0335 20.9622 27.8504L19.75 26.6382L18.5378 27.8504C18.3547 28.0335 18.1148 28.1251 17.875 28.1251C17.6352 28.1251 17.3952 28.0335 17.2122 27.8504C16.846 27.4842 16.846 26.8909 17.2122 26.5247L18.4243 25.3125L17.2121 24.1003C16.8459 23.7341 16.8459 23.1408 17.2121 22.7746C17.5783 22.4084 18.1716 22.4084 18.5378 22.7746L19.75 23.9868L20.9622 22.7746C21.3284 22.4084 21.9217 22.4084 22.2879 22.7746C22.6541 23.1408 22.6541 23.7341 22.2879 24.1003L21.0757 25.3125L22.2878 26.5247ZM23.2253 17.5378L20.4128 20.3503C20.2297 20.5334 19.9898 20.625 19.75 20.625C19.5102 20.625 19.2702 20.5334 19.0872 20.3503L17.2122 18.4753C16.846 18.1091 16.846 17.5158 17.2122 17.1496C17.5784 16.7834 18.1717 16.7834 18.5379 17.1496L19.75 18.3618L21.8997 16.2121C22.2659 15.8459 22.8592 15.8459 23.2254 16.2121C23.5916 16.5783 23.5916 17.1716 23.2253 17.5378ZM23.2253 11.9128L20.4128 14.7253C20.2297 14.9084 19.9898 15 19.75 15C19.5102 15 19.2702 14.9084 19.0872 14.7253L17.2122 12.8503C16.846 12.4841 16.846 11.8908 17.2122 11.5246C17.5784 11.1584 18.1717 11.1584 18.5379 11.5246L19.75 12.7368L21.8997 10.5871C22.2659 10.2209 22.8592 10.2209 23.2254 10.5871C23.5916 10.9533 23.5916 11.5466 23.2253 11.9128Z" fill="#5762F7"/>
</g>
<defs>
<clipPath id="clip0_219_1354">
<rect width="32" height="32" fill="white"/>
</clipPath>
</defs>
</svg>



<svg width="32" height="32" viewBox="0 0 32 32" fill="none" xmlns="http://www.w3.org/2000/svg">
<g clip-path="url(#clip0_219_1371)">
<path d="M25.8823 0.941162H6.11763C3.25646 0.941162 0.941162 3.26587 0.941162 6.11763V25.8823C0.941162 28.7341 3.25646 31.0588 6.11763 31.0588H25.8823C28.7341 31.0588 31.0588 28.7341 31.0588 25.8823V6.11763C31.0588 3.26587 28.7341 0.941162 25.8823 0.941162ZM12.2353 3.76469H13.647C14.4188 3.76469 15.0588 4.39528 15.0588 5.17646C15.0588 5.95763 14.4188 6.58822 13.647 6.58822H12.2353C11.4541 6.58822 10.8235 5.95763 10.8235 5.17646C10.8235 4.39528 11.4541 3.76469 12.2353 3.76469ZM20.3106 15.2376C20.5553 15.4165 20.7059 15.6988 20.7059 16C20.7059 16.3106 20.5553 16.5929 20.3106 16.7718L13.7223 21.4776C13.5529 21.5906 13.3647 21.647 13.1765 21.647C13.0259 21.647 12.8753 21.6188 12.7435 21.5435C12.4329 21.3835 12.2353 21.0635 12.2353 20.7059V11.2941C12.2353 10.9459 12.4329 10.6259 12.7435 10.4659C13.0541 10.3059 13.4306 10.3247 13.7223 10.5318L20.3106 15.2376ZM7.5294 28.2353H6.11763C5.33646 28.2353 4.70587 27.6047 4.70587 26.8235C4.70587 26.0423 5.33646 25.4118 6.11763 25.4118H7.5294C8.30116 25.4118 8.94116 26.0423 8.94116 26.8235C8.94116 27.6047 8.30116 28.2353 7.5294 28.2353ZM7.5294 6.58822H6.11763C5.33646 6.58822 4.70587 5.95763 4.70587 5.17646C4.70587 4.39528 5.33646 3.76469 6.11763 3.76469H7.5294C8.30116 3.76469 8.94116 4.39528 8.94116 5.17646C8.94116 5.95763 8.30116 6.58822 7.5294 6.58822ZM13.647 28.2353H12.2353C11.4541 28.2353 10.8235 27.6047 10.8235 26.8235C10.8235 26.0423 11.4541 25.4118 12.2353 25.4118H13.647C14.4188 25.4118 15.0588 26.0423 15.0588 26.8235C15.0588 27.6047 14.4188 28.2353 13.647 28.2353ZM19.7647 28.2353H18.3529C17.5718 28.2353 16.9412 27.6047 16.9412 26.8235C16.9412 26.0423 17.5718 25.4118 18.3529 25.4118H19.7647C20.5365 25.4118 21.1765 26.0423 21.1765 26.8235C21.1765 27.6047 20.5365 28.2353 19.7647 28.2353ZM19.7647 6.58822H18.3529C17.5718 6.58822 16.9412 5.95763 16.9412 5.17646C16.9412 4.39528 17.5718 3.76469 18.3529 3.76469H19.7647C20.5365 3.76469 21.1765 4.39528 21.1765 5.17646C21.1765 5.95763 20.5365 6.58822 19.7647 6.58822ZM25.8823 28.2353H24.4706C23.6894 28.2353 23.0588 27.6047 23.0588 26.8235C23.0588 26.0423 23.6894 25.4118 24.4706 25.4118H25.8823C26.6541 25.4118 27.2941 26.0423 27.2941 26.8235C27.2941 27.6047 26.6541 28.2353 25.8823 28.2353ZM25.8823 6.58822H24.4706C23.6894 6.58822 23.0588 5.95763 23.0588 5.17646C23.0588 4.39528 23.6894 3.76469 24.4706 3.76469H25.8823C26.6541 3.76469 27.2941 4.39528 27.2941 5.17646C27.2941 5.95763 26.6541 6.58822 25.8823 6.58822Z" fill="#5762F7"/>
</g>
<defs>
<clipPath id="clip0_219_1371">
<rect width="32" height="32" fill="white"/>
</clipPath>
</defs>
</svg>


<svg width="32" height="32" viewBox="0 0 32 32" fill="none" xmlns="http://www.w3.org/2000/svg">
<g clip-path="url(#clip0_219_1388)">
<path d="M10.0608 22.6615L9.11792 24.5475H10.9505C11.2617 24.5475 11.5507 24.7085 11.7142 24.9732C11.8777 25.2378 11.8927 25.5683 11.7534 25.8466L10.4256 28.5024L15.1022 32V29.4594L11.4296 22.114L10.0608 22.6615Z" fill="#5762F7"/>
<path d="M8.5051 28.3288L9.49807 26.3429H7.66556C7.35439 26.3429 7.06542 26.1818 6.90187 25.9172C6.73842 25.6525 6.72344 25.322 6.86265 25.0438L7.552 23.6651L6.92514 23.9158C4.3979 24.9268 2.49492 27.1069 1.83466 29.7475L1.27148 32H11.7663L8.72641 29.4141C8.41168 29.1464 8.32043 28.6984 8.5051 28.3288Z" fill="#5762F7"/>
<path d="M30.1655 29.7475C29.5053 27.1068 27.6023 24.9267 25.075 23.9158L24.4482 23.6651L25.1375 25.0438C25.2767 25.322 25.2618 25.6525 25.0983 25.9172C24.9347 26.1818 24.6457 26.3429 24.3346 26.3429H22.502L23.495 28.3288C23.6798 28.6985 23.5885 29.1464 23.2738 29.4141L20.2339 32H30.7285L30.1655 29.7475Z" fill="#5762F7"/>
<path d="M20.2466 25.8467C20.1074 25.5684 20.1224 25.2378 20.2858 24.9732C20.4495 24.7086 20.7385 24.5475 21.0495 24.5475H22.8821L21.9393 22.6616L20.5705 22.114L16.8977 29.4595V32L21.5744 28.5025L20.2466 25.8467Z" fill="#5762F7"/>
<path d="M9.2562 4.89999C9.33733 4.64194 9.53052 4.43432 9.78188 4.33476C10.033 4.23499 10.3161 4.25406 10.5521 4.38659C10.6262 4.42807 17.8571 8.42925 25.0887 8.2602C25.1227 7.87954 25.1405 7.50298 25.1405 7.13277C25.1405 4.56663 24.3064 2.74737 22.5905 1.57112C21.0698 0.528593 18.8525 0 16.0001 0C13.1477 0 10.9305 0.528593 9.40984 1.57112C7.69391 2.74737 6.85986 4.56663 6.85986 7.13277C6.85986 7.39502 6.86891 7.6605 6.88615 7.92824C8.65865 6.73789 9.24973 4.92035 9.2562 4.89999Z" fill="#5762F7"/>
<path d="M16 22.0838C15.0197 22.0838 14.0493 21.8704 13.1089 21.4578L16 27.2401L18.8912 21.4578C17.9508 21.8704 16.9803 22.0838 16 22.0838Z" fill="#5762F7"/>
<path d="M7.14575 9.85567C8.18182 14.9995 11.899 20.2883 16.0001 20.2883C20.0472 20.2883 23.7201 15.1393 24.812 10.0605C24.828 10.0604 24.844 10.0603 24.812 10.0603C18.7099 10.0603 12.7073 7.48487 10.5472 6.40894C10.0334 7.39307 8.99443 8.89912 7.14575 9.85567Z" fill="#5762F7"/>
</g>
<defs>
<clipPath id="clip0_219_1388">
<rect width="32" height="32" fill="white"/>
</clipPath>
</defs>
</svg>
